<?xml version="1.0" encoding="UTF-8"?>
<svg xmlns="http://www.w3.org/2000/svg" xmlns:xlink="http://www.w3.org/1999/xlink" width="578.01pt" height="111.98pt" viewBox="0 0 578.01 111.98" version="1.1">
<defs>
<clipPath id="clip1">
  <path d="M 127 52 L 187 52 L 187 111.980469 L 127 111.980469 Z M 127 52 "/>
</clipPath>
<clipPath id="clip2">
  <path d="M 216 26 L 280 26 L 280 111.980469 L 216 111.980469 Z M 216 26 "/>
</clipPath>
<clipPath id="clip3">
  <path d="M 284 51 L 344 51 L 344 111.980469 L 284 111.980469 Z M 284 51 "/>
</clipPath>
<clipPath id="clip4">
  <path d="M 500 51 L 560 51 L 560 111.980469 L 500 111.980469 Z M 500 51 "/>
</clipPath>
<clipPath id="clip5">
  <path d="M 0 0 L 121 0 L 121 111.980469 L 0 111.980469 Z M 0 0 "/>
</clipPath>
<clipPath id="clip6">
  <path d="M 558 28 L 578.011719 28 L 578.011719 48 L 558 48 Z M 558 28 "/>
</clipPath>
</defs>
<g id="surface1">
<g clip-path="url(#clip1)" clip-rule="nonzero">
<path style=" stroke:none;fill-rule:nonzero;fill:rgb(3.09906%,43.499756%,68.998718%);fill-opacity:1;" d="M 185.546875 93.183594 C 185.546875 100.054688 185.8125 105.730469 186.070313 110.464844 L 172.003906 110.464844 L 171.21875 101.824219 L 170.824219 101.824219 C 168.0625 105.851563 161.753906 111.765625 150.183594 111.765625 C 138.613281 111.765625 127.964844 105.492188 127.964844 86.679688 L 127.964844 52.832031 L 144.136719 52.832031 L 144.136719 84.191406 C 144.136719 93.773438 147.554688 99.929688 156.101563 99.929688 C 162.667969 99.929688 166.878906 95.90625 168.453125 92.125 C 169.113281 90.933594 169.375 89.28125 169.375 87.625 L 169.375 52.832031 L 185.546875 52.832031 L 185.546875 93.183594 "/>
</g>
<path style=" stroke:none;fill-rule:nonzero;fill:rgb(3.09906%,43.499756%,68.998718%);fill-opacity:1;" d="M 193.835938 110.460938 L 193.835938 52.832031 L 210.003906 52.832031 L 210.003906 110.460938 Z M 210.066406 36.738281 C 210.066406 41 206.90625 44.546875 201.867188 44.546875 C 197.0625 44.546875 193.898438 41 193.898438 36.738281 C 193.898438 32.238281 197.179688 28.808594 201.980469 28.808594 C 206.90625 28.808594 209.953125 32.238281 210.066406 36.738281 "/>
<g clip-path="url(#clip2)" clip-rule="nonzero">
<path style=" stroke:none;fill-rule:nonzero;fill:rgb(3.09906%,43.499756%,68.998718%);fill-opacity:1;" d="M 263.113281 76.851563 C 263.113281 75.667969 262.988281 74.132813 262.71875 72.949219 C 261.273438 67.386719 256.148438 62.769531 248.785156 62.769531 C 238.398438 62.769531 232.613281 71.054688 232.613281 81.703125 C 232.613281 92.363281 238.398438 100.050781 248.65625 100.050781 C 255.226563 100.050781 261.011719 96.023438 262.589844 89.757813 C 262.988281 88.453125 263.113281 87.027344 263.113281 85.488281 Z M 279.28125 26.441406 L 279.28125 94.25 C 279.28125 100.167969 279.546875 106.554688 279.816406 110.460938 L 265.484375 110.460938 L 264.6875 101.355469 L 264.4375 101.355469 C 260.617188 107.742188 252.863281 111.765625 243.65625 111.765625 C 228.277344 111.765625 216.183594 100.050781 216.183594 82.300781 C 216.050781 63.015625 229.460938 51.527344 244.847656 51.527344 C 253.648438 51.527344 259.960938 54.726563 262.847656 58.984375 L 263.113281 58.984375 L 263.113281 26.441406 L 279.28125 26.441406 "/>
</g>
<g clip-path="url(#clip3)" clip-rule="nonzero">
<path style=" stroke:none;fill-rule:nonzero;fill:rgb(3.09906%,43.499756%,68.998718%);fill-opacity:1;" d="M 328.601563 75.550781 C 328.730469 70.226563 326.097656 61.464844 315.320313 61.464844 C 305.328125 61.464844 301.117188 69.632813 300.46875 75.550781 Z M 300.46875 85.734375 C 300.855469 96.144531 309.800781 100.636719 320.183594 100.636719 C 327.675781 100.636719 332.933594 99.570313 337.929688 98.039063 L 340.296875 107.976563 C 334.78125 110.113281 327.15625 111.652344 317.949219 111.652344 C 297.179688 111.652344 284.957031 100.167969 284.957031 82.535156 C 284.957031 66.554688 295.730469 51.53125 316.242188 51.53125 C 337.007813 51.53125 343.851563 66.914063 343.851563 79.578125 C 343.851563 82.296875 343.585938 84.429688 343.316406 85.734375 L 300.46875 85.734375 "/>
</g>
<path style=" stroke:none;fill-rule:nonzero;fill:rgb(3.09906%,43.499756%,68.998718%);fill-opacity:1;" d="M 359.367188 52.832031 L 365.933594 78.988281 C 367.515625 85.136719 368.957031 91.410156 370.144531 97.683594 L 370.410156 97.683594 C 371.726563 91.410156 373.832031 85.023438 375.539063 79.109375 L 383.945313 52.832031 L 397.09375 52.832031 L 405.113281 78.390625 C 407.082031 85.136719 408.789063 91.410156 410.238281 97.683594 L 410.496094 97.683594 C 411.417969 91.410156 413.011719 85.136719 414.710938 78.390625 L 421.808594 52.832031 L 437.714844 52.832031 L 417.605469 110.460938 L 402.617188 110.460938 L 394.988281 87.035156 C 393.011719 81 391.566406 75.550781 390.125 68.566406 L 389.867188 68.566406 C 388.417969 75.667969 386.84375 81.351563 385 87.035156 L 376.84375 110.460938 L 361.734375 110.460938 L 342.800781 52.832031 L 359.367188 52.832031 "/>
<path style=" stroke:none;fill-rule:nonzero;fill:rgb(3.09906%,43.499756%,68.998718%);fill-opacity:1;" d="M 440.539063 110.460938 L 440.539063 52.832031 L 456.710938 52.832031 L 456.710938 110.460938 Z M 456.777344 36.738281 C 456.777344 41 453.613281 44.546875 448.574219 44.546875 C 443.777344 44.546875 440.601563 41 440.601563 36.738281 C 440.601563 32.238281 443.890625 28.808594 448.695313 28.808594 C 453.613281 28.808594 456.652344 32.238281 456.777344 36.738281 "/>
<path style=" stroke:none;fill-rule:nonzero;fill:rgb(3.09906%,43.499756%,68.998718%);fill-opacity:1;" d="M 466.078125 71.414063 C 466.078125 63.601563 465.949219 57.917969 465.550781 52.832031 L 479.492188 52.832031 L 480.152344 63.722656 L 480.542969 63.722656 C 483.691406 55.667969 491.195313 51.53125 498.152344 51.53125 C 499.738281 51.53125 500.652344 51.652344 501.976563 51.886719 L 501.976563 65.5 C 500.523438 65.253906 499.082031 65.140625 497.109375 65.140625 C 489.480469 65.140625 484.09375 69.519531 482.648438 76.144531 C 482.378906 77.445313 482.253906 78.988281 482.253906 80.523438 L 482.253906 110.460938 L 466.078125 110.460938 L 466.078125 71.414063 "/>
<g clip-path="url(#clip4)" clip-rule="nonzero">
<path style=" stroke:none;fill-rule:nonzero;fill:rgb(3.09906%,43.499756%,68.998718%);fill-opacity:1;" d="M 544.53125 75.550781 C 544.652344 70.226563 542.023438 61.464844 531.246094 61.464844 C 521.257813 61.464844 517.058594 69.632813 516.394531 75.550781 Z M 516.394531 85.734375 C 516.789063 96.144531 525.734375 100.636719 536.109375 100.636719 C 543.601563 100.636719 548.859375 99.570313 553.851563 98.039063 L 556.230469 107.976563 C 550.710938 110.113281 543.089844 111.652344 533.878906 111.652344 C 513.109375 111.652344 500.886719 100.167969 500.886719 82.535156 C 500.886719 66.554688 511.652344 51.53125 532.167969 51.53125 C 552.941406 51.53125 559.777344 66.914063 559.777344 79.578125 C 559.777344 82.296875 559.519531 84.429688 559.25 85.734375 L 516.394531 85.734375 "/>
</g>
<g clip-path="url(#clip5)" clip-rule="nonzero">
<path style=" stroke:none;fill-rule:nonzero;fill:rgb(3.09906%,43.499756%,68.998718%);fill-opacity:1;" d="M 93.992188 30.636719 C 86.445313 20.964844 74.671875 14.734375 61.445313 14.734375 C 36.441406 14.734375 16.167969 33.210938 16.167969 55.992188 C 16.167969 78.777344 36.441406 97.253906 61.445313 97.253906 C 80.449219 97.253906 96.40625 84.386719 101.195313 66.894531 L 71.996094 66.894531 L 71.996094 52.835938 L 120.246094 52.835938 L 120.246094 110.464844 L 104.074219 110.464844 L 104.074219 91.402344 C 93.980469 103.964844 78.628906 111.980469 61.445313 111.980469 C 27.515625 111.980469 0 86.902344 0 55.992188 C 0 25.070313 27.515625 0.00390625 61.445313 0.00390625 C 78.664063 0.00390625 94.042969 8.050781 104.136719 20.65625 L 93.992188 30.636719 "/>
</g>
<g clip-path="url(#clip6)" clip-rule="nonzero">
<path style=" stroke:none;fill-rule:nonzero;fill:rgb(3.09906%,43.499756%,68.998718%);fill-opacity:1;" d="M 566.949219 37.449219 L 567.980469 37.449219 C 569.183594 37.449219 570.15625 37.046875 570.15625 36.070313 C 570.15625 35.210938 569.527344 34.636719 568.152344 34.636719 C 567.578125 34.636719 567.175781 34.695313 566.949219 34.753906 Z M 566.890625 42.777344 L 564.710938 42.777344 L 564.710938 33.378906 C 565.570313 33.203125 566.777344 33.089844 568.324219 33.089844 C 570.101563 33.089844 570.902344 33.378906 571.589844 33.777344 C 572.105469 34.179688 572.507813 34.925781 572.507813 35.84375 C 572.507813 36.875 571.707031 37.675781 570.558594 38.019531 L 570.558594 38.136719 C 571.476563 38.480469 571.992188 39.167969 572.277344 40.429688 C 572.566406 41.863281 572.738281 42.433594 572.96875 42.777344 L 570.617188 42.777344 C 570.332031 42.433594 570.15625 41.574219 569.871094 40.484375 C 569.699219 39.453125 569.125 38.996094 567.921875 38.996094 L 566.890625 38.996094 Z M 561.101563 37.847656 C 561.101563 42.035156 564.195313 45.359375 568.4375 45.359375 C 572.566406 45.359375 575.605469 42.035156 575.605469 37.90625 C 575.605469 33.722656 572.566406 30.339844 568.382813 30.339844 C 564.195313 30.339844 561.101563 33.722656 561.101563 37.847656 Z M 578.011719 37.847656 C 578.011719 43.179688 573.828125 47.363281 568.382813 47.363281 C 562.992188 47.363281 558.691406 43.179688 558.691406 37.847656 C 558.691406 32.632813 562.992188 28.445313 568.382813 28.445313 C 573.828125 28.445313 578.011719 32.632813 578.011719 37.847656 "/>
</g>
</g>
</svg>
