<svg id="SvgjsSvg1013" width="288" height="288" xmlns="http://www.w3.org/2000/svg" version="1.1" xmlns:xlink="http://www.w3.org/1999/xlink" xmlns:svgjs="http://svgjs.com/svgjs"><defs id="SvgjsDefs1014"></defs><g id="SvgjsG1015"><svg xmlns="http://www.w3.org/2000/svg" xmlns:svgjs="http://svgjs.com/svgjs" xmlns:xlink="http://www.w3.org/1999/xlink" width="288" height="288"><svg xmlns="http://www.w3.org/2000/svg" xmlns:svgjs="http://svgjs.com/svgjs" xmlns:xlink="http://www.w3.org/1999/xlink" width="288" height="288"><svg xmlns="http://www.w3.org/2000/svg" width="288" height="288" transform="translate(11.995 11.996) scale(.9167)" viewBox="0 0 32 32"><path fill="#5c4033" d="M7.563 9.032v-2.476l4.219-2.429-7.035-4.12-4.217 2.463v3.017l9.497 23.060 5.973 3.447v-8.661l2.809-1.632-0.032-0.020 5.66-12.648v-2.476l7.033-4.087-4.219-2.463-7.033 4.116v2.813l-4.219 9.843v3.289l-2.813 1.632zM11.781 4.152l-0.029-0.019-4.189 2.423v2.476l5.624 12.668 2.813-1.388v-3.533l-4.219-9.843zM24.437 6.556v2.476l-5.627 12.135-2.811 1.943v8.884l6.028-3.476 9.443-23.117v-2.931z" class="color1563ff svgShape colorfff color3f51b5"></path></svg></svg></svg></g></svg>